<?xml version="1.0" standalone="no"?>
<!DOCTYPE svg PUBLIC "-//W3C//DTD SVG 20010904//EN"
 "http://www.w3.org/TR/2001/REC-SVG-20010904/DTD/svg10.dtd">
<svg version="1.0" xmlns="http://www.w3.org/2000/svg"
 width="171.000000pt" height="171.000000pt" viewBox="0 0 171.000000 171.000000"
 preserveAspectRatio="xMidYMid meet">
<metadata>
Created by potrace 1.10, written by Peter Selinger 2001-2011
</metadata>
<g transform="translate(0.000000,171.000000) scale(0.100000,-0.100000)"
fill="#6786d9" stroke="none">
<path d="M700 1670 c-248 -36 -504 -231 -609 -462 -69 -152 -75 -179 -75 -363
0 -184 6 -211 75 -363 72 -160 231 -319 391 -392 152 -68 179 -74 363 -74 151
0 177 3 234 23 299 105 467 273 572 572 20 57 23 83 23 234 0 151 -3 177 -23
234 -104 298 -279 473 -570 571 -71 24 -282 35 -381 20z m295 -41 c22 -6 56
-14 75 -18 46 -10 163 -66 220 -104 58 -39 178 -159 217 -217 38 -57 94 -174
104 -220 4 -19 12 -53 18 -75 6 -22 11 -89 11 -150 0 -60 -5 -128 -11 -150 -6
-22 -14 -56 -18 -75 -10 -46 -66 -163 -104 -220 -39 -58 -159 -178 -217 -217
-57 -38 -174 -94 -220 -104 -19 -4 -53 -12 -75 -18 -52 -14 -248 -14 -300 0
-22 6 -56 14 -75 18 -46 10 -163 66 -220 104 -58 39 -178 159 -217 217 -38 57
-94 174 -104 220 -4 19 -12 53 -18 75 -14 52 -14 248 0 300 6 22 14 56 18 75
10 46 66 163 104 220 39 58 159 178 217 217 57 38 174 94 220 104 19 4 51 12
70 17 48 13 256 14 305 1z"/>
<path d="M791 1280 c-23 -17 -44 -38 -48 -48 -3 -9 -11 -31 -19 -49 -8 -17
-14 -63 -14 -101 l0 -71 -42 -3 -43 -3 0 -80 0 -80 35 -3 c19 -2 38 -7 42 -11
6 -5 19 -320 18 -439 0 -10 23 -12 98 -10 l97 3 5 225 5 225 53 0 c71 1 83 15
85 101 l2 69 -72 3 -73 3 0 54 c0 63 13 75 79 75 59 0 72 19 69 99 l-3 66
-116 3 c-115 3 -115 2 -158 -28z"/>
</g>
</svg>
