<?xml version="1.0" standalone="no"?>
<!DOCTYPE svg PUBLIC "-//W3C//DTD SVG 20010904//EN"
 "http://www.w3.org/TR/2001/REC-SVG-20010904/DTD/svg10.dtd">
<svg version="1.0" xmlns="http://www.w3.org/2000/svg"
 width="57.000000pt" height="57.000000pt" viewBox="0 0 57.000000 57.000000"
 preserveAspectRatio="xMidYMid meet">
<metadata>
Created by potrace 1.10, written by Peter Selinger 2001-2011
</metadata>
<g transform="translate(0.000000,57.000000) scale(0.050000,-0.050000)"
fill="#6786d9" stroke="none">
<path d="M414 1113 c-182 -51 -356 -238 -394 -423 -112 -538 525 -901 928
-530 432 398 33 1111 -534 953z m366 -55 c322 -145 421 -554 198 -824 -329
-400 -979 -130 -932 387 32 356 412 583 734 437z"/>
<path d="M311 829 c-34 -35 -46 -454 -14 -505 12 -19 81 -24 275 -20 l258 6 6
258 c4 194 -1 263 -20 275 -51 32 -470 20 -505 -14z m469 -99 c0 -40 -10 -50
-50 -50 -40 0 -50 10 -50 50 0 40 10 50 50 50 40 0 50 -10 50 -50z m-137 -83
c92 -83 -12 -226 -120 -165 -64 36 -78 108 -32 160 43 47 104 49 152 5z m-243
-88 c0 -86 78 -159 170 -159 92 0 170 73 170 159 0 34 9 61 20 61 11 0 20 -57
20 -130 l0 -130 -210 0 -210 0 0 130 c0 73 9 130 20 130 11 0 20 -27 20 -61z"/>
</g>
</svg>
