<svg xmlns="http://www.w3.org/2000/svg" xmlns:xlink="http://www.w3.org/1999/xlink" viewBox="0 0 16 20" version="1.1" x="0px" y="0px"><title>arrow-double-down</title><desc>Created with Sketch.</desc><g stroke="none" stroke-width="1" fill="none" fill-rule="evenodd"><g fill="#000000"><path d="M13.041,3.919 C13.041,4.015 13.004,4.1 12.93,4.174 L7.775,9.329 C7.701,9.403 7.616,9.44 7.52,9.44 C7.425,9.44 7.34,9.403 7.266,9.329 L2.111,4.174 C2.037,4.1 2,4.015 2,3.919 C2,3.823 2.037,3.738 2.111,3.664 L2.664,3.111 C2.738,3.037 2.823,3 2.919,3 C3.014,3 3.099,3.037 3.173,3.111 L7.521,7.459 L11.869,3.111 C11.943,3.037 12.028,3 12.123,3 C12.219,3 12.304,3.037 12.378,3.111 L12.931,3.664 C13.005,3.738 13.042,3.823 13.042,3.919 L13.041,3.919 Z M13.041,8.167 C13.041,8.263 13.004,8.348 12.93,8.422 L7.775,13.577 C7.701,13.651 7.616,13.688 7.52,13.688 C7.425,13.688 7.34,13.651 7.266,13.577 L2.111,8.422 C2.037,8.348 2,8.263 2,8.167 C2,8.071 2.037,7.986 2.111,7.912 L2.664,7.359 C2.738,7.285 2.823,7.248 2.919,7.248 C3.014,7.248 3.099,7.285 3.173,7.359 L7.521,11.707 L11.869,7.359 C11.943,7.285 12.028,7.248 12.123,7.248 C12.219,7.248 12.304,7.285 12.378,7.359 L12.931,7.912 C13.005,7.986 13.042,8.071 13.042,8.167 L13.041,8.167 Z"/></g></g><text x="0" y="31" fill="#000000" font-size="5px" font-weight="bold" font-family="'Helvetica Neue', Helvetica, Arial-Unicode, Arial, Sans-serif">Created by Futishia</text><text x="0" y="36" fill="#f1f1f1" font-size="5px" font-weight="bold" font-family="'Helvetica Neue', Helvetica, Arial-Unicode, Arial, Sans-serif">from the Noun Project</text></svg>