<?xml version="1.0" standalone="no"?>
<!DOCTYPE svg PUBLIC "-//W3C//DTD SVG 20010904//EN"
 "http://www.w3.org/TR/2001/REC-SVG-20010904/DTD/svg10.dtd">
<svg version="1.0" xmlns="http://www.w3.org/2000/svg"
 width="171.000000pt" height="171.000000pt" viewBox="0 0 171.000000 171.000000"
 preserveAspectRatio="xMidYMid meet">
<metadata>
Created by potrace 1.10, written by Peter Selinger 2001-2011
</metadata>
<g transform="translate(0.000000,171.000000) scale(0.100000,-0.100000)"
fill="#6786d9" stroke="none">
<path d="M750 1696 c0 -16 -30 -26 -80 -26 -19 0 -48 -7 -64 -15 -15 -8 -36
-15 -45 -15 -10 0 -26 -7 -37 -15 -10 -8 -25 -15 -33 -15 -7 0 -33 -13 -58
-30 -24 -16 -47 -30 -50 -30 -25 0 -243 -218 -243 -243 0 -3 -13 -26 -30 -50
-16 -25 -30 -51 -30 -58 0 -8 -7 -23 -15 -33 -8 -11 -15 -29 -15 -41 0 -12 -5
-26 -11 -32 -42 -42 -42 -454 0 -496 6 -6 11 -20 11 -32 0 -12 7 -30 15 -41 8
-10 15 -25 15 -33 0 -7 14 -33 30 -58 17 -24 30 -47 30 -50 0 -25 218 -243
243 -243 3 0 26 -13 50 -30 25 -16 51 -30 58 -30 8 0 23 -7 33 -15 11 -8 29
-15 41 -15 12 0 26 -5 32 -11 42 -42 454 -42 496 0 6 6 20 11 32 11 12 0 30 7
41 15 10 8 25 15 33 15 7 0 33 13 58 30 24 16 47 30 50 30 25 0 243 218 243
243 0 3 13 26 30 50 16 25 30 51 30 58 0 8 7 23 15 33 8 11 15 27 15 37 0 9 7
30 15 45 8 16 15 45 15 64 0 50 10 80 26 80 11 0 14 21 14 95 0 74 -3 95 -14
95 -16 0 -26 30 -26 80 0 19 -7 48 -15 64 -8 15 -15 36 -15 45 0 10 -7 26 -15
37 -8 10 -15 25 -15 33 0 7 -13 33 -30 58 -16 24 -30 47 -30 50 0 25 -218 243
-243 243 -3 0 -26 14 -50 30 -25 17 -51 30 -58 30 -8 0 -23 7 -33 15 -11 8
-27 15 -37 15 -9 0 -30 7 -45 15 -16 8 -45 15 -64 15 -50 0 -80 10 -80 26 0
11 -21 14 -95 14 -74 0 -95 -3 -95 -14z m245 -67 c22 -6 56 -14 75 -18 46 -10
157 -63 223 -106 60 -38 181 -161 219 -221 37 -57 90 -173 99 -214 4 -19 12
-53 18 -75 6 -22 11 -89 11 -150 0 -60 -5 -128 -11 -150 -6 -22 -14 -56 -18
-75 -9 -41 -62 -157 -99 -214 -38 -60 -159 -183 -219 -221 -66 -43 -177 -96
-223 -106 -19 -4 -53 -12 -75 -18 -52 -14 -248 -14 -300 0 -22 6 -56 14 -75
18 -41 9 -157 62 -214 99 -60 38 -183 159 -221 219 -43 66 -96 177 -106 223
-4 19 -12 53 -18 75 -14 52 -14 248 0 300 6 22 14 56 18 75 9 41 62 157 99
214 38 60 159 183 219 221 66 43 177 96 223 106 19 4 51 12 70 17 48 13 256
14 305 1z"/>
<path d="M929 1202 c-61 -40 -99 -101 -99 -161 0 -22 -3 -42 -7 -44 -16 -10
-130 21 -195 52 -38 18 -93 55 -124 83 -49 46 -57 49 -70 36 -27 -26 -29 -89
-5 -141 12 -26 26 -47 31 -47 6 0 10 -7 10 -15 0 -9 -9 -15 -24 -15 -14 0 -27
-4 -30 -9 -11 -17 35 -100 72 -131 33 -28 35 -32 19 -41 -13 -7 -16 -17 -11
-32 8 -26 68 -80 97 -87 15 -4 22 -14 22 -29 0 -27 -48 -48 -138 -61 -32 -4
-60 -10 -63 -13 -8 -8 41 -35 102 -57 73 -25 229 -28 301 -5 152 49 273 153
338 290 19 42 35 84 35 94 0 10 7 38 15 61 8 23 15 59 15 78 0 28 8 45 37 74
36 37 37 39 15 44 -23 7 -30 28 -12 39 6 3 10 14 10 24 0 17 -3 17 -47 3 -44
-15 -48 -14 -84 6 -48 28 -169 30 -210 4z"/>
</g>
</svg>
