<!-- Generated by IcoMoon.io -->
<svg version="1.1" xmlns="http://www.w3.org/2000/svg" width="1024" height="1024" viewBox="0 0 1024 1024">
<title></title>
<g id="icomoon-ignore">
</g>
<path fill="#000" d="M650.715 760.43l-83.858 83.858v-332.288c0-20.187-16.384-36.571-36.571-36.571s-36.571 16.384-36.571 36.571v332.288l-83.858-83.858c-14.281-14.281-37.431-14.281-51.712 0s-14.281 37.431 0 51.712l146.267 146.267c1.701 1.719 3.584 3.237 5.614 4.59 0.859 0.585 1.81 0.969 2.706 1.481 1.189 0.658 2.322 1.371 3.584 1.883 1.189 0.494 2.432 0.768 3.657 1.134 1.061 0.311 2.066 0.731 3.163 0.933 2.359 0.457 4.754 0.713 7.15 0.713s4.791-0.256 7.168-0.731c1.097-0.219 2.103-0.622 3.163-0.933 1.225-0.366 2.469-0.64 3.657-1.134 1.262-0.512 2.395-1.225 3.584-1.883 0.914-0.494 1.847-0.896 2.706-1.481 2.011-1.353 3.895-2.871 5.614-4.59l146.267-146.267c14.281-14.281 14.281-37.431 0-51.712s-37.449-14.263-51.73 0.018z"></path>
<path fill="#000" d="M874.697 347.173c-2.505-0.347-44.928-6.126-85.65 0.037-0.933 0.146-1.865 0.219-2.779 0.219-8.887 0-16.677-6.473-18.048-15.543-1.518-9.984 5.339-19.31 15.323-20.827 27.995-4.261 55.991-3.584 74.661-2.267-12.27-141.751-129.883-253.934-271.506-253.934-85.888 0-172.215 43.502-224.64 112.073 35.73 30.208 58.514 75.282 58.514 125.641 0 10.112-8.174 18.286-18.286 18.286s-18.286-8.174-18.286-18.286c0-45.019-23.424-84.608-58.679-107.447-4.151-2.688-8.448-5.065-12.837-7.241-1.262-0.622-2.542-1.262-3.84-1.847-4.974-2.267-10.057-4.279-15.269-5.87-0.64-0.183-1.298-0.311-1.938-0.494-4.736-1.371-9.545-2.414-14.427-3.237-1.426-0.238-2.834-0.457-4.261-0.658-5.522-0.713-11.099-1.207-16.75-1.207-70.565 0-128 57.435-128 128 0 1.499 0.11 2.981 0.219 4.462l0.219 3.84-0.165 2.926c-0.128 2.377-0.274 4.736-0.274 7.058v11.52l-10.368 4.955c-68.169 32.677-117.632 111.525-117.632 187.483 0 109.367 88.96 198.327 198.309 198.327h258.834v-201.143c0-40.393 32.75-73.143 73.143-73.143s73.143 32.75 73.143 73.143v201.143h43.026c1.079 0 2.121-0.091 3.182-0.165l3.621-0.201 4.955 0.201c1.042 0.073 2.085 0.165 3.163 0.165h179.255c101.102 0 183.369-82.267 183.369-183.369 0-87.973-64.183-166.4-149.303-182.601z"></path>
</svg>
