<!-- Generated by IcoMoon.io -->
<svg version="1.1" xmlns="http://www.w3.org/2000/svg" width="1024" height="1024" viewBox="0 0 1024 1024">
<title></title>
<g id="icomoon-ignore">
</g>
<path fill="#000" d="M955.32 254.995c-45.784-78.436-107.887-140.539-186.325-186.32-78.453-45.779-164.094-68.664-256.99-68.664-92.887 0-178.555 22.885-256.992 68.664-78.443 45.774-140.546 107.878-186.33 186.32-45.786 78.448-68.671 164.115-68.671 256.995 0 92.885 22.892 178.539 68.664 256.99 45.781 78.436 107.885 140.539 186.327 186.325 78.448 45.777 164.108 68.664 256.992 68.664s178.555-22.887 256.997-68.664c78.439-45.77 140.539-107.89 186.318-186.325 45.772-78.446 68.655-164.11 68.655-256.99 0.002-92.889-22.883-178.56-68.645-256.995zM511.997 74.675c110.212 0 206.434 36.441 288.65 109.322l-8.334 11.659c-3.332 4.675-11.666 13.664-24.993 27.004-13.33 13.328-27.887 26.002-43.661 37.999-15.789 12.002-37.219 25.666-64.34 40.999-27.111 15.333-55.997 28.786-86.666 40.338-51.105-94.227-105.765-179.113-163.986-254.661 35.116-8.444 69.556-12.662 103.332-12.662zM169.351 240.651c42.662-53.765 94.652-95.103 155.99-123.987 55.108 73.329 109.322 157.333 162.658 251.992-135.105 35.555-269.763 53.333-403.981 53.326 14.229-67.104 42.671-127.555 85.333-181.331zM104.009 669.664c-19.557-49.996-29.334-102.559-29.334-157.673 0-6.225 0.229-10.893 0.668-14 160.89 0 310.445-20.66 448.661-62 14.224 27.553 26.002 52.219 35.335 74.002-1.8 0.887-4.668 1.882-8.67 2.996-4.014 1.111-6.895 1.882-8.689 2.333l-24.66 8.665c-16.895 6.225-39.012 16.893-66.334 31.996-27.329 15.126-56.327 33.115-86.993 54.008-30.668 20.895-62.334 48.56-94.996 83.015-32.666 34.441-60.109 71.429-82.331 110.98-35.555-39.552-63.104-84.339-82.658-134.321zM511.997 949.312c-103.999 0-196.884-33.337-278.662-99.995l10.001 7.337c15.553-34.231 38.438-67.121 68.666-98.669 30.224-31.548 59.332-57.004 87.33-76.342 27.999-19.319 58.44-37.539 91.332-54.671 32.886-17.099 55.318-27.999 67.328-32.65 12.002-4.665 21.559-8.341 28.669-11.012l1.326-0.67h1.343c43.54 114.217 74.665 224.887 93.324 331.994-55.11 23.121-111.987 34.67-170.658 34.677zM880.001 748.316c-32.891 50.893-74.009 93.011-123.326 126.331-18.236-102.216-46.664-206.446-85.34-312.656 88.441-13.792 179.325-7.337 272.656 19.319-9.782 60.443-31.116 116.122-63.989 167.006zM942.648 505.991c-4.444-0.883-10.006-1.891-16.669-2.996s-14.782-2.445-24.34-4c-9.543-1.555-20.225-2.996-31.994-4.332-11.78-1.333-24.333-2.552-37.676-3.664-13.328-1.116-27.553-1.996-42.655-2.669-15.128-0.663-30.453-0.999-46.010-0.999-15.541 0-31.889 0.451-48.99 1.333-17.106 0.876-33.657 2.449-49.653 4.668-1.343-2.225-3.005-5.894-5.004-11.007-1.996-5.107-3.454-9.002-4.315-11.668-8.455-18.665-18.236-39.778-29.358-63.326 30.668-12.452 59.897-26.78 87.689-43.005 27.768-16.225 49.973-30.661 66.649-43.325 16.669-12.678 32.445-26.124 47.33-40.341 14.894-14.22 24.547-24.104 29.007-29.661 4.451-5.567 8.67-11.007 12.664-16.333l0.67-0.672c64.884 79.109 98.008 170.212 99.325 273.329l-6.671-1.331z"></path>
</svg>
