<!-- Generated by IcoMoon.io -->
<svg version="1.1" xmlns="http://www.w3.org/2000/svg" width="1024" height="1024" viewBox="0 0 1024 1024">
<title></title>
<g id="icomoon-ignore">
</g>
<path fill="#000" d="M1024 622.668v378.579h-219.476v-353.224c0-88.733-31.745-149.29-111.188-149.29-60.645 0-96.735 40.811-112.612 80.288-5.79 14.113-7.28 33.757-7.28 53.512v368.714h-219.55c0 0 2.957-598.246 0-660.229h219.529v93.585c-0.445 0.7-1.024 1.455-1.443 2.133h1.443v-2.133c29.167-44.922 81.255-109.095 197.845-109.095 144.447-0.002 252.733 94.363 252.733 297.16zM124.235 22.755c-75.108 0-124.235 49.265-124.235 114.050 0 63.373 47.705 114.133 121.321 114.133h1.467c76.562 0 124.177-50.75 124.177-114.133-1.443-64.785-47.615-114.050-122.73-114.050zM13.039 1001.247h219.467v-660.229h-219.467v660.229z"></path>
</svg>
