<!-- Generated by IcoMoon.io -->
<svg version="1.1" xmlns="http://www.w3.org/2000/svg" width="1024" height="1024" viewBox="0 0 1024 1024">
<title></title>
<g id="icomoon-ignore">
</g>
<path d="M909.987 506.545l-398.019 351.937-397.885-351.937c-26.028-26.028-68.395-26.028-94.423 0s-26.028 68.395 0 94.294l444.234 392.971c13.28 13.413 30.679 19.656 48.075 19.389 17.4 0.397 34.795-5.842 48.075-18.992l444.368-392.971c25.899-26.028 25.899-68.529 0-94.423-26.162-26.162-68.529-26.296-94.423-0.267z"></path>
<path d="M463.756 517.702c13.28 13.28 30.679 19.656 48.075 19.389 17.4 0.267 34.929-6.109 48.075-19.389l444.238-392.971c26.43-26.028 26.43-68.261 0.267-94.423-26.028-26.028-68.529-26.028-94.423 0l-398.019 351.937-397.889-351.941c-26.162-26.028-68.529-26.028-94.557 0s-26.028 68.395 0 94.423l444.234 392.975z"></path>
</svg>
