<!-- Generated by IcoMoon.io -->
<svg version="1.1" xmlns="http://www.w3.org/2000/svg" width="1024" height="1024" viewBox="0 0 1024 1024">
<title></title>
<g id="icomoon-ignore">
</g>
<path fill="#000" d="M932.415 208.338l-116.752-116.755c-7.215-7.215-18.421-8.572-27.15-3.289l-60.884 36.851c-29.594-16.531-61.28-29.765-94.563-39.203l-16.985-69.071c-2.437-9.906-11.322-16.87-21.524-16.87h-165.114c-10.202 0-19.087 6.964-21.523 16.872l-16.985 69.071c-33.282 9.439-64.969 22.672-94.563 39.203l-60.884-36.851c-8.728-5.283-19.936-3.925-27.15 3.289l-116.754 116.754c-7.215 7.215-8.572 18.421-3.289 27.149l36.851 60.884c-16.531 29.594-29.764 61.28-39.203 94.563l-69.071 16.985c-9.908 2.437-16.872 11.322-16.872 21.524v165.114c0 10.202 6.964 19.087 16.872 21.523l69.071 16.985c9.439 33.282 22.672 64.969 39.203 94.563l-36.851 60.884c-5.283 8.728-3.925 19.935 3.289 27.149l116.752 116.756c7.215 7.213 18.421 8.571 27.15 3.289l60.884-36.851c29.594 16.531 61.279 29.762 94.563 39.203l16.985 69.071c2.436 9.906 11.321 16.872 21.523 16.872h165.114c10.202 0 19.087-6.964 21.523-16.872l16.985-69.071c33.282-9.44 64.969-22.672 94.563-39.203l60.884 36.851c8.728 5.283 19.936 3.925 27.15-3.289l116.755-116.755c7.215-7.215 8.571-18.421 3.289-27.149l-36.851-60.884c16.531-29.594 29.762-61.28 39.203-94.563l69.071-16.985c9.906-2.435 16.87-11.319 16.87-21.522v-165.114c0-10.202-6.964-19.087-16.872-21.523l-69.071-16.985c-9.44-33.282-22.672-64.969-39.203-94.563l36.851-60.884c5.284-8.732 3.926-19.939-3.288-27.153zM512.001 743.043c-127.602 0-231.043-103.443-231.043-231.044s103.442-231.044 231.043-231.044 231.044 103.442 231.044 231.044c0 127.601-103.442 231.044-231.044 231.044z"></path>
</svg>
