<!-- Generated by IcoMoon.io -->
<svg version="1.1" xmlns="http://www.w3.org/2000/svg" width="1024" height="1024" viewBox="0 0 1024 1024">
<title></title>
<g id="icomoon-ignore">
</g>
<path fill="#000" d="M1023.068 916.468l-141.117-821.818c-2.572-14.984-15.563-25.931-30.767-25.931h-686.773c-15.321 0-28.37 11.113-30.817 26.239l-133.192 824.128c-1.461 9.032 1.12 18.252 7.047 25.219s14.622 10.98 23.771 10.98h961.483c0.025 0 0.058 0 0.058 0 17.265 0 31.242-13.973 31.242-31.217 0-2.626-0.32-5.17-0.932-7.6zM720.159 283.508c-27.433 54.867-85.822 120.273-208.201 120.273s-180.763-65.406-208.196-120.273c-28.724-57.439-29.053-114.575-29.053-116.976 0-17.244 13.973-31.217 31.217-31.217 17.211 0 31.167 13.931 31.217 31.13 0.012 1.028 0.712 46.805 23.334 90.879 28.624 55.754 79.591 84.024 151.481 84.024 172.825 0 174.815-167.677 174.815-174.815 0-17.244 13.973-31.217 31.217-31.217s31.217 13.973 31.217 31.217c0 2.402-0.329 59.537-29.048 116.976z"></path>
</svg>
