<!-- Generated by IcoMoon.io -->
<svg version="1.1" xmlns="http://www.w3.org/2000/svg" width="1024" height="1024" viewBox="0 0 1024 1024">
<title></title>
<g id="icomoon-ignore">
</g>
<path fill="#000" d="M874.292 136.755c-142.346-4.646-238.676 75.205-289.117 239.641 25.975-10.699 51.219-16.098 75.839-16.098 51.908 0 74.88 29.129 68.748 87.547-3.044 35.376-25.972 86.849-68.748 154.403-42.942 67.666-75.020 101.438-96.329 101.438-27.665 0-52.848-52.272-75.836-156.692-7.711-30.75-21.502-109.060-41.243-235.12-18.511-116.76-67.422-171.313-146.946-163.645-33.644 3.094-84.039 33.9-151.302 92.209-49.072 44.576-98.79 89.159-149.325 133.703l48.148 62.164c45.95-32.285 72.836-48.353 80.3-48.353 35.236 0 68.148 55.277 98.768 165.811 27.448 101.517 55.13 202.899 82.711 304.271 41.081 110.617 91.724 165.949 151.294 165.949 96.35 0 214.322-90.618 353.445-271.916 134.593-173.566 204.077-310.318 208.766-410.277 6.177-133.585-43.541-201.997-149.167-205.029z"></path>
</svg>
